<svg width="100" height="100" viewBox="0 0 100 100" fill="none" xmlns="http://www.w3.org/2000/svg">
<g clip-path="url(#clip0_58_136)">
<path d="M78 28C90.1503 28 100 37.8497 100 50L100 58C100 65.732 93.732 72 86 72V72C78.268 72 72 78.268 72 86V86C72 93.732 65.732 100 58 100L50 100C37.8497 100 28 90.1503 28 78L28 64C28 44.1177 44.1177 28 64 28L78 28Z" fill="#D9D9D9"/>
<path d="M100 28L100 72L72 72L72 100L28 100L28 63C28 43.67 43.67 28 63 28L100 28Z" fill="#D9D9D9"/>
<path d="M29 100C29 100 29 74.8542 29 62.5278C29 50.2014 38.8611 29 62.5278 29C86.1944 29 100 29 100 29" stroke="white" stroke-width="2.02857"/>
<path d="M71 100C71 100 71 89 71 85.5C71 82 75 71 85.5 71C96 71 100 71 100 71" stroke="white" stroke-width="2"/>
<path d="M50 100L50 72C50 72 50 50 72 50C94 50 100 50 100 50" stroke="white" stroke-width="2" stroke-dasharray="10 10"/>
</g>
<defs>
<clipPath id="clip0_58_136">
<rect width="100" height="100" fill="white" transform="translate(0 100) rotate(-90)"/>
</clipPath>
</defs>
</svg>
