<svg width="100" height="100" viewBox="0 0 100 100" fill="none" xmlns="http://www.w3.org/2000/svg">
<g clip-path="url(#clip0_58_150)">
<path d="M28 22C28 9.84974 37.8497 5.43335e-06 50 4.37114e-06L58 3.67176e-06C65.732 2.9958e-06 72 6.26802 72 14V14C72 21.732 78.268 28 86 28V28C93.732 28 100 34.268 100 42L100 50C100 62.1503 90.1503 72 78 72L64 72C44.1177 72 28 55.8823 28 36L28 22Z" fill="#D9D9D9"/>
<path d="M28 6.29444e-06L72 2.44784e-06L72 28L100 28L100 72L63 72C43.67 72 28 56.33 28 37L28 6.29444e-06Z" fill="#D9D9D9"/>
<path d="M100 71C100 71 74.8542 71 62.5278 71C50.2014 71 29 61.1389 29 37.4722C29 13.8056 29 8.35278e-06 29 8.35278e-06" stroke="white" stroke-width="2.02857"/>
<path d="M100 29C100 29 89 29 85.5 29C82 29 71 25 71 14.5C71 4 71 -1.27944e-06 71 -1.27944e-06" stroke="white" stroke-width="2"/>
<path d="M100 50L72 50C72 50 50 50 50 28C50 6 50 4.37114e-06 50 4.37114e-06" stroke="white" stroke-width="2" stroke-dasharray="10 10"/>
</g>
<defs>
<clipPath id="clip0_58_150">
<rect width="100" height="100" fill="white" transform="translate(100 100) rotate(180)"/>
</clipPath>
</defs>
</svg>
