<svg width="100" height="100" viewBox="0 0 100 100" fill="none" xmlns="http://www.w3.org/2000/svg">
<rect y="28" width="100" height="44" fill="#D9D9D9"/>
<rect y="28" width="100" height="2" fill="white"/>
<path d="M0 49H5C5.55228 49 6 49.4477 6 50V50C6 50.5523 5.55228 51 5 51H0V49Z" fill="white"/>
<rect x="19" y="49" width="12" height="2" rx="1" fill="white"/>
<rect x="44" y="49" width="12" height="2" rx="1" fill="white"/>
<rect x="69" y="49" width="12" height="2" rx="1" fill="white"/>
<path d="M94 50C94 49.4477 94.4477 49 95 49H100V51H95C94.4477 51 94 50.5523 94 50V50Z" fill="white"/>
<rect y="70" width="100" height="2" fill="white"/>
</svg>
