<svg width="100" height="100" viewBox="0 0 100 100" fill="none" xmlns="http://www.w3.org/2000/svg">
<g clip-path="url(#clip0_58_84)">
<path d="M72 78C72 90.1503 62.1503 100 50 100H42C34.268 100 28 93.732 28 86V86C28 78.268 21.732 72 14 72V72C6.26801 72 0 65.732 0 58V50C0 37.8497 9.84974 28 22 28H36C55.8823 28 72 44.1177 72 64V78Z" fill="#D9D9D9"/>
<path d="M72 100H28V72H0V28H37C56.33 28 72 43.67 72 63V100Z" fill="#D9D9D9"/>
<path d="M0 29C0 29 25.1458 29 37.4722 29C49.7986 29 71 38.8611 71 62.5278C71 86.1944 71 100 71 100" stroke="white" stroke-width="2.02857"/>
<path d="M0 71C0 71 11 71 14.5 71C18 71 29 75 29 85.5C29 96 29 100 29 100" stroke="white" stroke-width="2"/>
<path d="M0 50H28C28 50 50 50 50 72C50 94 50 100 50 100" stroke="white" stroke-width="2" stroke-dasharray="10 10"/>
</g>
<defs>
<clipPath id="clip0_58_84">
<rect width="100" height="100" fill="white"/>
</clipPath>
</defs>
</svg>
