<svg width="100" height="100" viewBox="0 0 100 100" fill="none" xmlns="http://www.w3.org/2000/svg">
<g clip-path="url(#clip0_58_16)">
<rect x="72" width="100" height="44" transform="rotate(90 72 0)" fill="#D9D9D9"/>
<rect x="72" width="100" height="2" transform="rotate(90 72 0)" fill="white"/>
<path d="M51 0L51 5C51 5.55228 50.5523 6 50 6V6C49.4477 6 49 5.55228 49 5L49 -8.74228e-08L51 0Z" fill="white"/>
<rect x="51" y="19" width="12" height="2" rx="1" transform="rotate(90 51 19)" fill="white"/>
<rect x="51" y="44" width="12" height="2" rx="1" transform="rotate(90 51 44)" fill="white"/>
<rect x="51" y="69" width="12" height="2" rx="1" transform="rotate(90 51 69)" fill="white"/>
<path d="M50 94C50.5523 94 51 94.4477 51 95L51 100L49 100L49 95C49 94.4477 49.4477 94 50 94V94Z" fill="white"/>
<rect x="30" width="100" height="2" transform="rotate(90 30 0)" fill="white"/>
</g>
<defs>
<clipPath id="clip0_58_16">
<rect width="100" height="100" fill="white"/>
</clipPath>
</defs>
</svg>
